{"accessors":[{"bufferView":0,"byteOffset":0,"componentType":5126,"count":5672,"max":[0.0,6.227999687194824,28.94860076904297],"min":[0.0,-6.227999687194824,20.77899932861328],"type":"VEC3"},{"bufferView":1,"byteOffset":0,"componentType":5126,"count":5672,"normalized":false,"type":"VEC2"},{"bufferView":2,"byteOffset":0,"componentType":5125,"count":32325,"type":"SCALAR"}],"asset":{"generator":"VTK","version":"2.0"},"bufferViews":[{"buffer":0,"byteLength":68064,"byteOffset":0},{"buffer":1,"byteLength":45376,"byteOffset":0},{"buffer":2,"byteLength":129300,"byteOffset":0},{"buffer":3,"byteLength":273,"byteOffset":0}],"buffers":[{"byteLength":68064,"uri":"buffer25326875.bin"},{"byteLength":45376,"uri":"buffer25730914.bin"},{"byteLength":129300,"uri":"buffer25730915.bin"},{"byteLength":273,"uri":"buffer25731409.bin"}],"cameras":[{"perspective":{"aspectRatio":1.4674115456238361,"yfov":0.5235987755982988,"zfar":43.132734495613576,"znear":33.11883756160342},"type":"perspective"}],"images":[{"bufferView":3,"mimeType":"image/png"}],"materials":[{"pbrMetallicRoughness":{"baseColorFactor":[1.0,1.0,1.0,1.0],"baseColorTexture":{"index":0,"texCoord":0},"metallicFactor":0.0,"roughnessFactor":1.0}}],"meshes":[{"name":"mesh0","primitives":[{"attributes":{"POSITION":0,"TEXCOORD_0":1},"indices":2,"material":0,"mode":4}]}],"nodes":[{"mesh":0,"name":"mesh0"},{"camera":0,"matrix":[0.17880530017831706,-0.9450256210258127,-0.2737795467760862,-0.0,0.20378014086790114,-0.2366589084559551,0.9499822183790044,-0.0,-0.9625499045846925,-0.22565269033010238,0.15026158701007597,-0.0,-36.107243068268545,-8.46470037548151,30.500423791819948,1.0],"name":"Camera Node"},{"children":[0,1],"name":"Renderer Node"}],"samplers":[{"magFilter":9728,"minFilter":9728,"wrapS":33071,"wrapT":33071}],"scene":0,"scenes":[{"name":"Layer 0","nodes":[2]}],"textures":[{"sampler":0,"source":0}]}