{"accessors":[{"bufferView":0,"byteOffset":0,"componentType":5126,"count":8103,"max":[3.0141131415007343e-17,6.227999687194824,28.94860076904297],"min":[-4.40217399597168,-0.0448777861893177,20.77899932861328],"type":"VEC3"},{"bufferView":1,"byteOffset":0,"componentType":5126,"count":8103,"normalized":false,"type":"VEC2"},{"bufferView":2,"byteOffset":0,"componentType":5125,"count":42039,"type":"SCALAR"}],"asset":{"generator":"VTK","version":"2.0"},"bufferViews":[{"buffer":0,"byteLength":97236,"byteOffset":0},{"buffer":1,"byteLength":64824,"byteOffset":0},{"buffer":2,"byteLength":168156,"byteOffset":0},{"buffer":3,"byteLength":273,"byteOffset":0}],"buffers":[{"byteLength":97236,"uri":"buffer20756245.bin"},{"byteLength":64824,"uri":"buffer21163767.bin"},{"byteLength":168156,"uri":"buffer23223537.bin"},{"byteLength":273,"uri":"buffer23224028.bin"}],"cameras":[{"perspective":{"aspectRatio":1.4674115456238361,"yfov":0.5235987755982988,"zfar":53.31051060122539,"znear":28.25631016843677},"type":"perspective"}],"images":[{"bufferView":3,"mimeType":"image/png"}],"materials":[{"pbrMetallicRoughness":{"baseColorFactor":[1.0,1.0,1.0,1.0],"baseColorTexture":{"index":0,"texCoord":0},"metallicFactor":0.0,"roughnessFactor":1.0}}],"meshes":[{"name":"mesh0","primitives":[{"attributes":{"POSITION":0,"TEXCOORD_0":1},"indices":2,"material":0,"mode":4}]}],"nodes":[{"mesh":0,"name":"mesh0"},{"camera":0,"matrix":[0.9200818885759833,-0.38392623493482875,-0.07778151736253562,-0.0,0.277462840942895,0.49856049015096543,0.8212501504147971,-0.0,-0.2765206867674633,-0.7771988701672152,0.5652417412049952,-0.0,-10.372864412495765,-29.154341384118137,46.067189966389634,1.0],"name":"Camera Node"},{"children":[0,1],"name":"Renderer Node"}],"samplers":[{"magFilter":9728,"minFilter":9728,"wrapS":33071,"wrapT":33071}],"scene":0,"scenes":[{"name":"Layer 0","nodes":[2]}],"textures":[{"sampler":0,"source":0}]}