{"accessors":[{"bufferView":0,"byteOffset":0,"componentType":5126,"count":15526,"max":[3.984020790899582e-17,6.227999687194824,28.94860076904297],"min":[-6.227999687194824,-6.227999687194824,20.77899932861328],"type":"VEC3"},{"bufferView":1,"byteOffset":0,"componentType":5126,"count":15526,"normalized":false,"type":"VEC2"},{"bufferView":2,"byteOffset":0,"componentType":5125,"count":80931,"type":"SCALAR"}],"asset":{"generator":"VTK","version":"2.0"},"bufferViews":[{"buffer":0,"byteLength":186312,"byteOffset":0},{"buffer":1,"byteLength":124208,"byteOffset":0},{"buffer":2,"byteLength":323724,"byteOffset":0},{"buffer":3,"byteLength":273,"byteOffset":0}],"buffers":[{"byteLength":186312,"uri":"buffer2434018.bin"},{"byteLength":124208,"uri":"buffer24097347.bin"},{"byteLength":323724,"uri":"buffer24097348.bin"},{"byteLength":273,"uri":"buffer24097842.bin"}],"cameras":[{"perspective":{"aspectRatio":1.4674115456238361,"yfov":0.5235987755982988,"zfar":66.55677117730842,"znear":29.722158805719612},"type":"perspective"}],"images":[{"bufferView":3,"mimeType":"image/png"}],"materials":[{"pbrMetallicRoughness":{"baseColorFactor":[1.0,1.0,1.0,1.0],"baseColorTexture":{"index":0,"texCoord":0},"metallicFactor":0.0,"roughnessFactor":1.0}}],"meshes":[{"name":"mesh0","primitives":[{"attributes":{"POSITION":0,"TEXCOORD_0":1},"indices":2,"material":0,"mode":4}]}],"nodes":[{"mesh":0,"name":"mesh0"},{"camera":0,"matrix":[-0.8244733862796694,0.5371104343857867,-0.178202178972219,-0.0,-0.47334694759438234,-0.48196522590476537,0.7373277346076503,-0.0,0.31013916637473615,0.6922585516210545,0.6516070865083525,-0.0,13.96075596115437,31.16166466226431,54.19555979925657,1.0],"name":"Camera Node"},{"children":[0,1],"name":"Renderer Node"}],"samplers":[{"magFilter":9728,"minFilter":9728,"wrapS":33071,"wrapT":33071}],"scene":0,"scenes":[{"name":"Layer 0","nodes":[2]}],"textures":[{"sampler":0,"source":0}]}