{"accessors":[{"bufferView":0,"byteOffset":0,"componentType":5126,"count":19687,"max":[6.227999687194824,6.227999687194824,28.94860076904297],"min":[-6.227999687194824,-6.227999687194824,20.77899932861328],"type":"VEC3"},{"bufferView":1,"byteOffset":0,"componentType":5126,"count":19687,"normalized":false,"type":"VEC2"},{"bufferView":2,"byteOffset":0,"componentType":5125,"count":118110,"type":"SCALAR"}],"asset":{"generator":"VTK","version":"2.0"},"bufferViews":[{"buffer":0,"byteLength":236244,"byteOffset":0},{"buffer":1,"byteLength":157496,"byteOffset":0},{"buffer":2,"byteLength":472440,"byteOffset":0},{"buffer":3,"byteLength":273,"byteOffset":0}],"buffers":[{"byteLength":236244,"uri":"buffer1051268.bin"},{"byteLength":157496,"uri":"buffer9170303.bin"},{"byteLength":472440,"uri":"buffer9170304.bin"},{"byteLength":273,"uri":"buffer9170798.bin"}],"cameras":[{"perspective":{"aspectRatio":1.4674115456238361,"yfov":0.5235987755982988,"zfar":62.14737563915173,"znear":18.013394098273537},"type":"perspective"}],"images":[{"bufferView":3,"mimeType":"image/png"}],"materials":[{"pbrMetallicRoughness":{"baseColorFactor":[1.0,1.0,1.0,1.0],"baseColorTexture":{"index":0,"texCoord":0},"metallicFactor":0.0,"roughnessFactor":1.0}}],"meshes":[{"name":"mesh0","primitives":[{"attributes":{"POSITION":0,"TEXCOORD_0":1},"indices":2,"material":0,"mode":4}]}],"nodes":[{"mesh":0,"name":"mesh0"},{"camera":0,"matrix":[-0.6876740287411786,0.6623824274003788,-0.29724392351410406,-0.0,-0.46393136285729597,-0.08598832290689547,0.8816879827246321,-0.0,0.5584551197296418,0.7442147057098788,0.3664319187146639,-0.0,20.948809671844845,27.917036972374557,38.609421230631696,1.0],"name":"Camera Node"},{"children":[0,1],"name":"Renderer Node"}],"samplers":[{"magFilter":9728,"minFilter":9728,"wrapS":33071,"wrapT":33071}],"scene":0,"scenes":[{"name":"Layer 0","nodes":[2]}],"textures":[{"sampler":0,"source":0}]}