{"accessors":[{"bufferView":0,"byteOffset":0,"componentType":5126,"count":15190,"max":[6.227999687194824,6.227999687194824,25.149181365966797],"min":[-6.227999687194824,-6.227999687194824,20.77899932861328],"type":"VEC3"},{"bufferView":1,"byteOffset":0,"componentType":5126,"count":15190,"normalized":false,"type":"VEC2"},{"bufferView":2,"byteOffset":0,"componentType":5125,"count":91128,"type":"SCALAR"}],"asset":{"generator":"VTK","version":"2.0"},"bufferViews":[{"buffer":0,"byteLength":182280,"byteOffset":0},{"buffer":1,"byteLength":121520,"byteOffset":0},{"buffer":2,"byteLength":364512,"byteOffset":0},{"buffer":3,"byteLength":273,"byteOffset":0}],"buffers":[{"byteLength":182280,"uri":"buffer25178127.bin"},{"byteLength":121520,"uri":"buffer25261430.bin"},{"byteLength":364512,"uri":"buffer25261431.bin"},{"byteLength":273,"uri":"buffer25261925.bin"}],"cameras":[{"perspective":{"aspectRatio":1.4674115456238361,"yfov":0.5235987755982988,"zfar":55.36694389009062,"znear":23.65633372076802},"type":"perspective"}],"images":[{"bufferView":3,"mimeType":"image/png"}],"materials":[{"pbrMetallicRoughness":{"baseColorFactor":[1.0,1.0,1.0,1.0],"baseColorTexture":{"index":0,"texCoord":0},"metallicFactor":0.0,"roughnessFactor":1.0}}],"meshes":[{"name":"mesh0","primitives":[{"attributes":{"POSITION":0,"TEXCOORD_0":1},"indices":2,"material":0,"mode":4}]}],"nodes":[{"mesh":0,"name":"mesh0"},{"camera":0,"matrix":[-0.9531221314176286,-0.052903183682788735,-0.29792525196455194,0.0,-0.292180274325638,-0.09507577396367402,0.9516256010113447,0.0,-0.07866949788139976,0.9940633029950524,0.07516155760530085,-0.0,-2.9510560112599378,37.28937599549685,27.68326594552385,1.0],"name":"Camera Node"},{"children":[0,1],"name":"Renderer Node"}],"samplers":[{"magFilter":9728,"minFilter":9728,"wrapS":33071,"wrapT":33071}],"scene":0,"scenes":[{"name":"Layer 0","nodes":[2]}],"textures":[{"sampler":0,"source":0}]}